# xmcd
#
# Track frame offsets: 
#        150
#        13277
#        26132
#        37633
#        48449
#        61022
#        72108
#        83109
#        96151
#        106369
#        119234
#        131584
#        143350
#        152988
#        165192
#        177913
#        188572
#        198388
#
# Disc length: 2807 seconds
#
# Revision: 0
# Processed by: cddbd v1.5.2PL0 Copyright (c) Steve Scherf et al.
# Submitted via: ExactAudioCopy v0.99pb5
#
DISCID=e90af512
DTITLE=James Brown - The Federal Singles d2
DYEAR=2014
DGENRE=R&B
TTITLE0=Begging Begging
TTITLE1=That's When I Lost My Heart
TTITLE2=Try Me
TTITLE3=Tell Me What I Did Wrong
TTITLE4=I Want You So Bad
TTITLE5=There Must Be A Reason
TTITLE6=I've Got To Change
TTITLE7=It Hurts To Tell You
TTITLE8=Good Good Lovin'
TTITLE9=Don't Let It Happen To Me
TTITLE10=It Was You
TTITLE11=Got To Cry
TTITLE12=I'll Go Crazy
TTITLE13=I Know It's True
TTITLE14=Think
TTITLE15=You've Got The Power
TTITLE16=This Old Heart
TTITLE17=Wonder When You're Coming Home
EXTD=
EXTT0=
EXTT1=
EXTT2=
EXTT3=
EXTT4=
EXTT5=
EXTT6=
EXTT7=
EXTT8=
EXTT9=
EXTT10=
EXTT11=
EXTT12=
EXTT13=
EXTT14=
EXTT15=
EXTT16=
EXTT17=
PLAYORDER=
